<svg width="48" height="48" viewBox="0 0 48 48" fill="none" xmlns="http://www.w3.org/2000/svg">
<path d="M12.8438 5.81243C12.2813 5.90149 12 5.95774 11.7188 6.04212C11.2688 6.16868 10.4297 6.50618 10.2985 6.6093C10.2329 6.66087 10.1625 6.70305 10.1391 6.70305C10.1204 6.70305 9.96567 6.7968 9.79692 6.91399C9.62817 7.03118 9.40786 7.18118 9.30474 7.2468C9.06567 7.40618 7.9688 8.51712 7.9688 8.60149C7.9688 8.63899 7.94067 8.68587 7.90317 8.70462C7.80005 8.76555 7.4063 9.41243 7.16724 9.91868C6.70786 10.8937 6.57192 11.564 6.51567 13.1718C6.45474 14.9437 6.45474 34.7952 6.51567 35.5593C6.63755 37.0499 7.08286 38.2734 7.90317 39.3796C9.17817 41.0952 11.0344 42.0796 13.261 42.2343C14.1141 42.2906 34.0875 42.2906 34.8 42.2343C36.1829 42.1218 37.2375 41.7843 38.236 41.1281C40.1016 39.914 41.2313 38.0812 41.4844 35.8734C41.5219 35.5452 41.5313 32.0577 41.5219 23.7421L41.5079 12.0702L41.3719 11.489C41.1469 10.4812 40.875 9.82493 40.3688 9.0468C39.4219 7.5843 37.8657 6.44524 36.2438 6.01868C35.2219 5.75149 35.8266 5.76555 23.9766 5.77024C17.9672 5.77493 12.961 5.79368 12.8438 5.81243ZM32.625 12.8671C32.6625 12.914 32.6766 15.6749 32.6719 22.6031C32.6719 31.9124 32.6672 32.2781 32.5829 32.3906C32.5219 32.4749 32.4469 32.5124 32.311 32.5218C32.0672 32.5406 32.011 32.6577 31.9782 33.1687C31.95 33.7077 32.0485 34.0171 32.3485 34.3359C32.475 34.4671 32.5782 34.5937 32.5782 34.6077C32.5782 34.6265 29.1985 34.6406 25.0688 34.6406C16.9172 34.6359 17.1282 34.6452 16.5704 34.3781C16.05 34.1343 15.6047 33.6046 15.4219 33.0093C15.3282 32.714 15.3282 32.5546 15.3282 24.1593C15.3282 14.5687 15.3 15.3515 15.6797 14.5546C15.9985 13.8984 16.4532 13.4156 17.025 13.1296C17.1704 13.0546 17.2782 12.9796 17.2594 12.9656C17.2454 12.9468 17.2688 12.9468 17.3157 12.9656C17.386 12.9937 17.3954 12.9843 17.3672 12.9374C17.3438 12.8952 17.3485 12.8859 17.3813 12.9093C17.4141 12.9281 17.5172 12.914 17.611 12.8812C17.7516 12.8343 19.3032 12.8156 25.1016 12.7968C29.1235 12.7827 32.4516 12.7827 32.4938 12.7921C32.5407 12.8015 32.5969 12.8343 32.625 12.8671Z" fill="#3F51B5"/>
<path d="M25.2563 13.6312L19.4531 13.6406L19.4484 19.3734C19.4438 22.5234 19.4391 26.5781 19.4344 28.3828L19.4297 31.6641L25.3969 31.6734L31.3594 31.6828V30.4875V29.2969H27.0234H22.6875V28.65C22.6828 28.2984 22.6734 27.0094 22.6594 25.7859L22.6313 23.564L26.0578 23.6015L29.4844 23.6344V22.4578V21.2812H26.0766L22.6641 21.2859L22.65 18.5625L22.6406 15.8437H27H31.3594V14.7187V13.5937L31.2094 13.6078C31.125 13.6125 28.4438 13.6219 25.2563 13.6312Z" fill="#3F51B5"/>
<path d="M18.0798 13.7625C18.061 13.7812 17.986 13.8 17.9063 13.8047C17.6907 13.8234 17.2501 14.0578 17.0063 14.2875C16.7391 14.5359 16.5376 14.8453 16.3969 15.2156L16.2891 15.4922L16.2751 24C16.2704 28.6781 16.2751 32.5312 16.2891 32.5687C16.3032 32.6062 16.4157 32.5172 16.6032 32.3297C17.0251 31.9031 17.5266 31.6875 18.1032 31.6875H18.286L18.2813 22.7109C18.2766 14.1703 18.2719 13.7343 18.1923 13.7343C18.1454 13.7343 18.0938 13.7484 18.0798 13.7625Z" fill="#3F51B5"/>
<path d="M17.5453 32.6297C17.1469 32.7468 17.0859 33.3281 17.4516 33.5203C17.5266 33.5625 19.3406 33.5812 24.4312 33.5906L31.3125 33.6093V33.1828C31.3125 32.9484 31.3359 32.7187 31.3594 32.6672C31.4109 32.5781 31.3172 32.5781 24.5531 32.5828C20.5125 32.5828 17.6344 32.6062 17.5453 32.6297Z" fill="#3F51B5"/>
</svg>
